<?xml version="1.0" encoding="utf-8"?>
<!-- Generator: Adobe Illustrator 24.3.0, SVG Export Plug-In . SVG Version: 6.00 Build 0)  -->
<svg version="1.1" id="Layer_1" xmlns="http://www.w3.org/2000/svg" xmlns:xlink="http://www.w3.org/1999/xlink" x="0px" y="0px"
	 viewBox="0 0 28 25" style="enable-background:new 0 0 28 25;" xml:space="preserve">
<style type="text/css">
	.st0{fill:#FA5801;}
</style>
<path class="st0" d="M13.6,12.5c0,2.7-3.1,3.5-4.9,5c-1.9,1.6-3.9,5.4-6.8,4.1c-3.6-1.7-0.8-6.8-0.7-9l0,0c0-2.2-2.8-7.3,0.8-9
	C4.7,2.1,6.7,6,8.6,7.5C10.4,9,13.6,9.5,13.6,12.5"/>
<ellipse transform="matrix(0.1528 -0.9883 0.9883 0.1528 -0.944 32.961)" class="st0" cx="18.8" cy="17" rx="3.4" ry="4.4"/>
<path class="st0" d="M25.2,16.2c-0.4-0.2-0.7-0.2-0.8,0.2c0,0.4,0.2,0.6,0.2,0.9c0,0.3-0.2,0.7-0.2,0.9c0.1,0.4,0.7,0.2,0.8,0.2
	c1.1-0.2,2-0.8,2.8-1.6c-0.5,0-1.1,0-1.6-0.1C26,16.6,25.5,16.5,25.2,16.2z"/>
<ellipse transform="matrix(0.3934 -0.9194 0.9194 0.3934 -13.1476 24.3945)" class="st0" cx="11.9" cy="22.2" rx="2.7" ry="3.6"/>
<path class="st0" d="M17.3,22.2c-0.3-0.2-0.6-0.3-0.7,0.1c0,0.3,0.1,0.5,0.1,0.8c0,0.3-0.3,0.6-0.2,0.8c0.1,0.3,0.6,0.3,0.7,0.3
	c1-0.1,1.9-0.5,2.6-1.2c-0.5,0-1-0.1-1.4-0.3C18,22.6,17.6,22.4,17.3,22.2z"/>
<ellipse transform="matrix(0.9884 -0.1521 0.1521 0.9884 -0.9958 2.9455)" class="st0" cx="18.8" cy="8" rx="4.4" ry="3.4"/>
<path class="st0" d="M25.2,8.8c-0.4,0.2-0.7,0.2-0.8-0.2c0-0.4,0.2-0.6,0.2-0.9c0-0.3-0.2-0.7-0.2-0.9c0.1-0.4,0.7-0.2,0.8-0.2
	c1.1,0.2,2,0.8,2.8,1.6c-0.5,0-1.1,0-1.6,0.1C26,8.4,25.6,8.6,25.2,8.8z"/>
<ellipse transform="matrix(0.9197 -0.3925 0.3925 0.9197 -0.1616 4.9069)" class="st0" cx="11.9" cy="2.8" rx="3.6" ry="2.7"/>
<path class="st0" d="M17.3,2.8C17,3,16.7,3.1,16.6,2.7c0-0.3,0.1-0.5,0.1-0.8c0-0.3-0.3-0.6-0.2-0.8c0.1-0.3,0.6-0.3,0.7-0.3
	C18.1,1,19,1.4,19.8,2c-0.5,0-1,0.1-1.4,0.2C18,2.4,17.6,2.6,17.3,2.8z"/>
</svg>
